<svg width="16" height="12" viewBox="0 0 16 12" fill="none" xmlns="http://www.w3.org/2000/svg">
<path d="M15.3652 6.56009L10.3852 11.5601C10.2252 11.7201 10.0251 11.8001 9.82515 11.8001C9.62515 11.8001 9.42515 11.7201 9.26515 11.5601C8.94515 11.2401 8.94515 10.7401 9.26515 10.4201L12.8852 6.78009H1.20515C0.765151 6.78009 0.405151 6.42009 0.405151 5.98009C0.405151 5.54009 0.765151 5.18009 1.20515 5.18009H12.8852L9.26515 1.5401C8.94515 1.2201 8.94515 0.720095 9.26515 0.400095C9.58515 0.0800952 10.0852 0.0800952 10.4052 0.400095L15.3852 5.40009C15.6852 5.74009 15.6852 6.26009 15.3652 6.56009Z" fill="black"/>
</svg>
